<svg xmlns="http://www.w3.org/2000/svg" id="svg2" viewBox="0 0 17.905509 10.98359" height="11715.829" width="19099.209"><g id="layer1"><path id="path4218" d="M17.905 2.096c.012-.487-.163-.988-.563-1.388l-.2-.2c-.6-.6-1.798-.7-2.598.1L8.98 6.17 3.375.564c-.8-.8-2-.7-2.7 0l-.2.2c-.6.6-.7 1.8.1 2.6l7 7c.043.043.092.076.138.114l.03.03c.6.6 1.8.702 2.6-.098l7-7c.35-.35.55-.826.563-1.314z" fill="#797979"/></g><style id="style4137">.st0{fill:#797979;}</style><style id="style4137-0">.st0{fill:#797979;}</style><style id="style4212">.st0{fill:#797979;}</style></svg>