<svg xmlns="http://www.w3.org/2000/svg" id="svg2" viewBox="0 0 10.983632 17.905507" height="19099.207" width="11715.874"><g id="layer1"><path id="path4218" d="M2.096 0C1.61-.01 1.108.164.708.564l-.2.2c-.6.6-.7 1.8.1 2.6l5.563 5.56-5.607 5.61c-.8.8-.7 1.998 0 2.698l.2.2c.6.6 1.8.7 2.6-.1l7-7c.043-.042.076-.09.114-.136l.03-.03c.6-.6.702-1.8-.098-2.6l-7-7C3.06.213 2.583.013 2.095 0z" fill="#797979"/></g><style id="style4137">.st0{fill:#797979;}</style><style id="style4137-0">.st0{fill:#797979;}</style><style id="style4212">.st0{fill:#797979;}</style></svg>