<svg xmlns="http://www.w3.org/2000/svg" id="svg2" viewBox="0 0 12.318679 12.318679" height="13139.923" width="13139.923"><defs id="defs4"><style id="style4297">.cls-1{fill:#fff;}</style></defs><g id="layer1"><path id="rect4301" d="M1.61 0c-.294-.01-.593.092-.827.31L.777.313C.31.748.283 1.474.717 1.94L4.553 6.07.37 9.957c-.468.434-.495 1.158-.06 1.625l.004.008c.434.467 1.16.494 1.625.06l4.185-3.886 3.887 4.185c.433.466 1.158.493 1.625.06l.008-.006c.466-.434.494-1.158.06-1.625L7.818 6.19l4.13-3.835c.468-.433.495-1.158.062-1.625l-.006-.007C11.57.256 10.846.23 10.38.663L6.245 4.5 2.41.37C2.193.135 1.903.01 1.61 0z" fill="#fff"/></g><style id="style4137">.st0{fill:#797979;}</style><style id="style4137-0">.st0{fill:#797979;}</style><style id="style4212">.st0{fill:#797979;}</style></svg>