<?xml version="1.0" encoding="UTF-8" standalone="no"?>
<svg
   xmlns:dc="http://purl.org/dc/elements/1.1/"
   xmlns:cc="http://creativecommons.org/ns#"
   xmlns:rdf="http://www.w3.org/1999/02/22-rdf-syntax-ns#"
   xmlns:svg="http://www.w3.org/2000/svg"
   xmlns="http://www.w3.org/2000/svg"
   version="1.1"
   id="svg2"
   viewBox="0 0 24.09961 18"
   height="5.0799999mm"
   width="6.8014455mm">
  <defs
     id="defs4" />
  <metadata
     id="metadata7">
    <rdf:RDF>
      <cc:Work
         rdf:about="">
        <dc:format>image/svg+xml</dc:format>
        <dc:type
           rdf:resource="http://purl.org/dc/dcmitype/StillImage" />
        <dc:title></dc:title>
      </cc:Work>
    </rdf:RDF>
  </metadata>
  <g
     transform="translate(-379.37891,-551.48716)"
     id="layer1">
    <path
       id="path4139"
       d="m 381.2793,551.48716 c -1.1,0 -1.90039,0.80079 -1.90039,1.80079 l 0,0.29882 c 0,1 0.80039,1.90039 1.90039,1.90039 l 20.19922,0 c 1.1,0 1.9,-0.90078 2,-1.80078 l 0,-0.29883 c 0,-1.1 -0.9004,-1.90039 -1.9004,-1.90039 l -20.29882,0 z m 0,7 c -1.1,0 -1.90039,0.90079 -1.90039,1.80079 l 0,0.29882 c 0,1 0.80039,1.90039 1.90039,1.90039 l 20.19922,0 c 1.1,0 1.9,-0.90078 2,-1.80078 l 0,-0.29883 c 0,-1.1 -0.9004,-1.90039 -1.9004,-1.90039 l -20.29882,0 z m 0,6.90039 c -1.1,0 -1.90039,0.9004 -1.90039,1.9004 l 0,0.29882 c 0,1.1 0.90039,1.90039 1.90039,1.90039 l 20.19922,0 c 1.1,0 1.9,-0.80039 2,-1.90039 l 0,-0.29882 c 0,-1.1 -0.9004,-1.9004 -1.9004,-1.9004 l -20.29882,0 z"
       style="fill:#797979" />
  </g>
  <style
     type="text/css"
     id="style4137">
	.st0{fill:#797979;}
</style>
</svg>
